<?xml version="1.0" encoding="utf-8"?><!-- Uploaded to: SVG Repo, www.svgrepo.com, Generator: SVG Repo Mixer Tools -->
<svg fill="#000000" width="800px" height="800px" viewBox="0 0 24 24" id="folder-edit" data-name="Flat Line" xmlns="http://www.w3.org/2000/svg" class="icon flat-line"><path id="secondary" d="M21,7V9.64a8.44,8.44,0,0,0-13.44,6.8A8.09,8.09,0,0,0,7.71,18H4a1,1,0,0,1-1-1V4A1,1,0,0,1,4,3H9a1,1,0,0,1,.71.29l2.41,2.42a1,1,0,0,0,.71.29H20A1,1,0,0,1,21,7Z" style="fill: rgb(44, 169, 188); stroke-width: 2;"></path><path id="primary" d="M15.05,21H12.22V18.17l5.66-5.66a1,1,0,0,1,1.41,0l1.42,1.42a1,1,0,0,1,0,1.41Z" style="fill: none; stroke: rgb(0, 0, 0); stroke-linecap: round; stroke-linejoin: round; stroke-width: 2;"></path><path id="primary-2" data-name="primary" d="M21,9V7a1,1,0,0,0-1-1H12.83a1,1,0,0,1-.71-.29L9.71,3.29A1,1,0,0,0,9,3H4A1,1,0,0,0,3,4V17a1,1,0,0,0,1,1H8" style="fill: none; stroke: rgb(0, 0, 0); stroke-linecap: round; stroke-linejoin: round; stroke-width: 2;"></path></svg>