<?xml version="1.0" encoding="utf-8"?><!-- Uploaded to: SVG Repo, www.svgrepo.com, Generator: SVG Repo Mixer Tools -->
<svg fill="#000000" width="800px" height="800px" viewBox="0 0 24 24" id="folder-remove" data-name="Flat Line" xmlns="http://www.w3.org/2000/svg" class="icon flat-line"><path id="secondary" d="M21,7v4.31A8.5,8.5,0,0,0,7.26,18H4a1,1,0,0,1-1-1V4A1,1,0,0,1,4,3H9a1,1,0,0,1,.71.29l2.41,2.42a1,1,0,0,0,.71.29H20A1,1,0,0,1,21,7Z" style="fill: rgb(44, 169, 188); stroke-width: 2;"></path><line id="primary" x1="12" y1="17" x2="20" y2="17" style="fill: none; stroke: rgb(0, 0, 0); stroke-linecap: round; stroke-linejoin: round; stroke-width: 2;"></line><path id="primary-2" data-name="primary" d="M7,18H4a1,1,0,0,1-1-1V4A1,1,0,0,1,4,3H9a1,1,0,0,1,.71.29l2.41,2.42a1,1,0,0,0,.71.29H20a1,1,0,0,1,1,1v5" style="fill: none; stroke: rgb(0, 0, 0); stroke-linecap: round; stroke-linejoin: round; stroke-width: 2;"></path></svg>